# xmcd CD database file
#
# Track frame offsets:
#	150
#	14813
#	29468
#	42528
#	55755
#	67705
#	80800
#	94543
#	106926
#	119152
#	132811
#	144767
#	156707
#	169832
#	183432
#	196036
#	210147
#	223261
#	235772
#	249163
#	262640
#	275589
#	289449
#	303251
#	317606
#	330686
#
# Disc length: 4577 seconds
#
# Revision: 3
# Processed by: cddbd v1.5.2PL0 Copyright (c) Steve Scherf et al.
# Submitted via: CDex 1.51
#
DISCID=7611df1a
DTITLE=T-Bone Walker - The Essence of T-Bone Walker D1
DYEAR=2009
DGENRE=Blues
TTITLE0=T-Bone Blues
TTITLE1=I Got A Break, Baby
TTITLE2=Mean Old World
TTITLE3=I'm Still In Love With You
TTITLE4=Bobby Sox Blues
TTITLE5=I'm Gonna Find My Baby
TTITLE6=Don't Give Me The Runaround
TTITLE7=I Know Your Wig Has Gone
TTITLE8=T-Bone Jumps Again
TTITLE9=Call It Stormy Monday (But Tuesday Is Just As Bad)
TTITLE10=She's My Old Time Used To Be
TTITLE11=Dream Girl Blues
TTITLE12=Long Lost Lover Blues
TTITLE13=I'm Waiting For Your Call
TTITLE14=Hypin' Woman Blues
TTITLE15=First Love Blues
TTITLE16=Vacation Blues
TTITLE17=Inspiration Blues
TTITLE18=T-Bone Shuffle
TTITLE19=Misfortune Blues
TTITLE20=I Wish You Were Mine
TTITLE21=She's The No-Sleepin'est Woman
TTITLE22=Plain Old Down Home Blues
TTITLE23=Born To Be No Good
TTITLE24=You're My Best Poker Hand
TTITLE25=West Side Baby
EXTD=YEAR: 2009
EXTT0=
EXTT1=
EXTT2=
EXTT3=
EXTT4=
EXTT5=
EXTT6=
EXTT7=
EXTT8=
EXTT9=
EXTT10=
EXTT11=
EXTT12=
EXTT13=
EXTT14=
EXTT15=
EXTT16=
EXTT17=
EXTT18=
EXTT19=
EXTT20=
EXTT21=
EXTT22=
EXTT23=
EXTT24=
EXTT25=
PLAYORDER=
